<svg width="14" height="14" viewBox="0 0 14 14" fill="none" xmlns="http://www.w3.org/2000/svg">
<path d="M13.1887 5.16583L9.22154 4.58926L7.4481 0.993951C7.39966 0.895514 7.31998 0.815826 7.22154 0.767389C6.97466 0.645514 6.67466 0.747076 6.55123 0.993951L4.77779 4.58926L0.810601 5.16583C0.701226 5.18145 0.601226 5.23301 0.524663 5.31114C0.432103 5.40627 0.381099 5.53426 0.382856 5.66699C0.384614 5.79971 0.438991 5.9263 0.534038 6.01895L3.40435 8.81739L2.72623 12.769C2.71032 12.8609 2.7205 12.9554 2.75559 13.0418C2.79068 13.1283 2.84929 13.2032 2.92477 13.258C3.00025 13.3128 3.08958 13.3454 3.18263 13.352C3.27568 13.3586 3.36873 13.3391 3.45123 13.2955L6.99966 11.4299L10.5481 13.2955C10.645 13.3471 10.7575 13.3643 10.8653 13.3455C11.1372 13.2986 11.32 13.0408 11.2731 12.769L10.595 8.81739L13.4653 6.01895C13.5434 5.94239 13.595 5.84239 13.6106 5.73301C13.6528 5.45958 13.4622 5.20645 13.1887 5.16583Z" fill="#FEA250"/>
</svg>
