<svg width="147" height="184" viewBox="0 0 147 184" fill="none" xmlns="http://www.w3.org/2000/svg">
<path d="M5 65L7.24514 71.9098H14.5106L8.63271 76.1803L10.8779 83.0902L5 78.8197L-0.877852 83.0902L1.36729 76.1803L-4.51056 71.9098H2.75486L5 65Z" fill="#57546F"/>
<path d="M55 40L57.2451 46.9098H64.5106L58.6327 51.1803L60.8779 58.0902L55 53.8197L49.1221 58.0902L51.3673 51.1803L45.4894 46.9098H52.7549L55 40Z" fill="#57546F"/>
<path d="M50 99L53.3677 109.365H64.2658L55.4491 115.771L58.8168 126.135L50 119.729L41.1832 126.135L44.5509 115.771L35.7342 109.365H46.6323L50 99Z" fill="#57546F"/>
<path d="M111 114L114.368 124.365H125.266L116.449 130.771L119.817 141.135L111 134.729L102.183 141.135L105.551 130.771L96.7342 124.365H107.632L111 114Z" fill="#57546F"/>
</svg>
